#!OML:ASF E:/inclinewalkrobotboard/Project1/Captureday1/Session1/subject1.ASF
:FULLY-SPECIFIED
:DEGREES
213
root 0 0 0 17.556342484809335 -4.098019152988446 -1.3879571233215207
lowerback 21.07238859978777 -3.243546883077946 -1.1046129259991213
upperback -0.9059360917567378 -4.770011262615661 3.9604067302403756
thorax -12.601303465355034 -2.1215870424701624 5.315329765875001
lowerneck -9.647999880984122 9.177961310544145 18.459274180107812
upperneck 21.656251012152513 10.696467326384099 -8.17191357744274
head 9.844701111698415 5.811495751338936 -4.578688498035094
rclavicle 1.5318758911129667E-15 5.151091811210185E-15
rhumerus 27.932441265194086 23.794331113068488 -76.64474693192517
rradius 113.75983025643694
rwrist -42.83078669643794
rhand -24.476525407447337 -22.801612532703622
rfingers 7.125019999999989
rthumb 2.041516818670912 -53.22510486141735
lclavicle -3.293019045256627E-15 5.673284600055266E-15
lhumerus 25.6751250275165 -35.90186019230899 73.83544203109042
lradius 142.3396273323162
lwrist 9.106605850089649
lhand -33.404877511928454 8.341406261760422
lfingers 7.125019999999939
lthumb -6.576290932058768 38.80623070215703
rfemur -45.80321294621163 2.811405264250583 30.817287805563904
rtibia 43.8790133064802
rfoot -21.552981590380128 -3.7624067768064524
rtoes -43.951969549948146
lfemur -41.69208985989917 -20.279457921052398 -12.156883938632863
ltibia 18.17189278901759
lfoot -45.390411236351106 6.27928691836975
ltoes -34.992492532844956
214
root 0 0 0 17.55680794624997 -4.086146821203547 -1.419028432624819
lowerback 21.079286218059387 -3.24972472273455 -1.1016771435949975
upperback -0.9082897950559659 -4.77995774313934 3.9564725872251776
thorax -12.607919101575762 -2.126638347999418 5.311902663086755
lowerneck -9.622930943012001 9.205984789199356 18.493551268360804
upperneck 21.627839145034365 10.73809912421449 -8.189593897634749
head 9.839608321150077 5.832486152417508 -4.585323127362098
rclavicle 1.6399658788266503E-15 5.4096418789148E-15
rhumerus 27.976972006733554 23.251392691058772 -76.32585413653383
rradius 112.93081990855396
rwrist -42.50541001313752
rhand -24.47044489884104 -22.941135436987146
rfingers 7.1250199999999895
rthumb 2.048707393467522 -53.36422206154085
lclavicle -3.0979394195838105E-15 5.8672903376810115E-15
lhumerus 25.699267803877945 -35.69238695475389 73.68683224384847
lradius 142.2149616999888
lwrist 9.027669684108243
lhand -33.379256249589574 8.318483480572038
lfingers 7.12501999999994
lthumb -6.551101530978093 38.78157141917132
rfemur -45.15023995977007 2.545116612513443 30.839000043676858
rtibia 43.649691919180846
rfoot -20.889881949607005 -3.850077843446556
rtoes -44.40045058241104
lfemur -39.443382455365274 -21.38643794517651 -12.22338522937105
ltibia 14.930212175755592
lfoot -45.820576713503215 7.1282353384824315
ltoes -34.57723551332153
215
root 0 0 0 17.54314980435827 -4.101199141629639 -1.4410759758212368
lowerback 21.102897267912535 -3.2527256040075363 -1.10903297710039
upperback -0.9056069241256202 -4.787562933387034 3.943255374655756
thorax -12.617476561878751 -2.13048358024062 5.303053774476378
lowerneck -9.612428446824731 9.236782321516165 18.526618783894097
upperneck 21.610886332020392 10.781199258363554 -8.200745487204426
head 9.840274645556272 5.854700936407247 -4.589487542672356
rclavicle 1.753721423093696E-15 5.7137582889871494E-15
rhumerus 28.0671523305016 22.547065661979904 -75.9085329462851
rradius 111.76409669127803
rwrist -42.05959657528388
rhand -24.461679352514366 -23.125483060286747
rfingers 7.125019999999991
rthumb 2.0587912443196856 -53.54795036737863
lclavicle -2.887754641532824E-15 6.1006239724117215E-15
lhumerus 25.729373273322956 -35.4405071851082 73.50727813943487
lradius 142.05918185593518
lwrist 8.931582628937415
lhand -33.3412983712574 8.290344905127064
lfingers 7.125019999999941
lthumb -6.5138288021276995 38.75082110046401
rfemur -44.83089589127624 2.346597636314071 30.74754007226884
rtibia 43.546634249592714
rfoot -20.387684171528218 -3.9278738179401156
rtoes -44.74604177640434
lfemur -37.354716239033095 -22.378854334577124 -12.340528130042461
ltibia 12.070717338045384
lfoot -46.15315061210481 7.831069541319385
ltoes -34.18669615015095
216
root 0 0 0 17.521112654783913 -4.135253107671378 -1.4560058815083279
lowerback 21.142894842200217 -3.253287719748081 -1.1225491374701098
upperback -0.8980549040031081 -4.793205330546695 3.9238733261913605
thorax -12.630451595704752 -2.1334435056204684 5.289825585491247
lowerneck -9.611186582282418 9.269277664633668 18.55819276638598
upperneck 21.592383716516185 10.826431463082711 -8.210875818357929
head 9.842059394775752 5.8777265093051065 -4.592773194971278
rclavicle 1.842580394862745E-15 6.014406552308972E-15
rhumerus 28.21272500696284 21.67436140147489 -75.38989184628522
rradius 110.25234804374031
rwrist -41.50394414038878
rhand -24.453128186550728 -23.349866652929343
rfingers 7.125019999999993
rthumb 2.068949307921386 -53.77179201389857
lclavicle -2.692795538060606E-15 6.334434523074316E-15
lhumerus 25.75920501314411 -35.18102677212891 73.32261056370416
lradius 141.89419372430143
lwrist 8.832920151665606
lhand -33.297634592682044 8.26227239122925
lfingers 7.1250199999999415
lthumb -6.470953614049591 38.71977725653875
rfemur -44.899909981759336 2.2433844085686037 30.548705834525258
rtibia 43.58554847056253
rfoot -20.107981388672275 -3.9872897072682516
rtoes -44.95284558448478
lfemur -35.66511051320704 -23.149543682223122 -12.502977771671098
ltibia 9.923215572063214
lfoot -46.35545319784384 8.29823832347842
ltoes -33.855722913302664
217
root 0 0 0 17.485642023564708 -4.208718255378784 -1.4727864633213832
lowerback 21.233831481713967 -3.2525789975612014 -1.145263985056931
upperback -0.8780391496372655 -4.80070629805324 3.8911437228061256
thorax -12.658242192226128 -2.137779064632798 5.265624413291729
lowerneck -9.60885181909123 9.324747625497013 18.60908799649432
upperneck 21.530168662821477 10.909516839065803 -8.245011638969139
head 9.835950220223008 5.91722698082382 -4.602584828730835
rclavicle 1.882816225208408E-15 6.344010166827446E-15
rhumerus 28.481150788033723 20.362757249988874 -74.63682808679631
rradius 107.77459793853617
rwrist -40.64147730820914
rhand -24.44296948112925 -23.671519213606018
rfingers 7.125019999999995
rthumb 2.0813250558511367 -54.09266101682195
lclavicle -2.5228542050965325E-15 6.5807220626135086E-15
lhumerus 25.776094691744674 -34.913261635698696 73.13934572841744
lradius 141.71057224396895
lwrist 8.741069888612063
lhand -33.23988639729554 8.241202982307822
lfingers 7.125019999999942
lthumb -6.414392432863536 38.695134521408185
rfemur -45.70837457095585 2.3392243866297022 30.141066445032287
rtibia 43.86219986082903
rfoot -20.229031778403893 -4.027655361707147
rtoes -44.94539749346427
lfemur -34.18455997734455 -23.783537191639294 -12.771242449125204
ltibia 8.32005093938789
lfoot -46.43856518198335 8.519281477197246
ltoes -33.51910431253056
218
root 0 0 0 17.460297973428865 -4.257747058140433 -1.4686700357679472
lowerback 21.283296078291603 -3.2508935715133047 -1.163325427804386
upperback -0.8653346763575813 -4.803421202223708 3.8705789572564395
thorax -12.670470617039873 -2.1393001979903365 5.2521647324387875
lowerneck -9.623833337693085 9.344941645418196 18.621898594522865
upperneck 21.51055555301562 10.938320275631012 -8.250728030685481
head 9.836574767010298 5.9308016853764975 -4.603199639507139
rclavicle 1.80203471924894E-15 6.502311126374307E-15
rhumerus 28.724167671251234 19.256219070575053 -73.97462593306372
rradius 105.81840571298834
rwrist -39.97177765133146
rhand -24.441945408135712 -23.918733262384666
rfingers 7.125019999999997
rthumb 2.0845094212515676 -54.34027776538086
lclavicle -2.4741443217522526E-15 6.711722135396407E-15
lhumerus 25.807208458274957 -34.749075723153545 73.0125412721046
lradius 141.60737290683016
lwrist 8.666401014226636
lhand -33.21936835369939 8.218978321637458
lfingers 7.125019999999942
lthumb -6.393927191213471 38.671229073654374
rfemur -46.4925023362012 2.4714235006737866 29.819098600124907
rtibia 44.13835066145273
rfoot -20.467959028126657 -4.038133369010415
rtoes -44.81890940931949
lfemur -33.57672687798931 -23.955145050887655 -12.959654058121442
ltibia 7.893909856818411
lfoot -46.35652612717772 8.52530988289457
ltoes -33.40079624267689
219
root 0 0 0 17.43678785956567 -4.3117187372335 -1.4644103038103422
lowerback 21.339897883942836 -3.2498612358580186 -1.1806938235522797
upperback -0.8506013293063104 -4.8070532452156565 3.851022231579445
thorax -12.684782600725745 -2.141335142295549 5.239280520946037
lowerneck -9.635150081182188 9.367808473508449 18.63757091161182
upperneck 21.47906979709514 10.973043945006685 -8.264581276055125
head 9.833655503980296 5.946419631996897 -4.60625303341631
rclavicle 1.6603433689695109E-15 6.583424815775856E-15
rhumerus 28.959350656057982 18.18138717660014 -73.35141877418528
rradius 103.8314032877623
rwrist -39.3143232007369
rhand -24.437201532873964 -24.145625437156696
rfingers 7.125019999999998
rthumb 2.091072847097971 -54.56716482575507
lclavicle -2.483921152610797E-15 6.772574709145396E-15
lhumerus 25.825193406371753 -34.65029963667477 72.93421067692222
lradius 141.54103065665197
lwrist 8.618963678101458
lhand -33.20691166855971 8.205948528793698
lfingers 7.125019999999942
lthumb -6.381448698259719 38.657200015268785
rfemur -47.441730924934724 2.6892919802781705 29.503663585907336
rtibia 44.457229220490284
rfoot -20.88517946006228 -4.0309468645107795
rtoes -44.57262648210636
lfemur -33.400142139146006 -23.92682482493696 -13.117230671541858
ltibia 8.030458621046066
lfoot -46.2184462069802 8.390640540022577
ltoes -33.36332296602233
220
root 0 0 0 17.41712905081027 -4.363178502682096 -1.4573073364789706
lowerback 21.391412404508845 -3.2495173014899343 -1.1960187205507133
upperback -0.8365937855138794 -4.810842913222332 3.8349437321860362
thorax -12.697284937447659 -2.143411115423787 5.22909170126578
lowerneck -9.645490545755727 9.386153975336887 18.648500354748997
upperneck 21.44613265936786 11.002383146702382 -8.279915006321051
head 9.82902038145671 5.958855970977676 -4.609654077299259
rclavicle 1.4723188421726665E-15 6.601915383345161E-15
rhumerus 29.18380221093196 17.19036491020782 -72.78268844549956
rradius 101.99431154133774
rwrist -38.7223399174636
rhand -24.43201461355878 -24.344084847128595
rfingers 7.125019999999999
rthumb 2.0977443100413087 -54.76554007732174
lclavicle -2.5500281449605768E-15 6.784189022385522E-15
lhumerus 25.840754226770137 -34.61119831094226 72.89556462004538
lradius 141.51469082373782
lwrist 8.591939540343036
lhand -33.20642510247693 8.197843969242832
lfingers 7.125019999999942
lthumb -6.380687244215359 38.6488442668409
rfemur -48.392066764384715 2.9390915407786817 29.229350192732397
rtibia 44.768939952995865
rfoot -21.37815994229443 -4.010939864859527
rtoes -44.273335824198384
lfemur -33.556927161178564 -23.732517777622483 -13.24040355341114
ltibia 8.595186810773463
lfoot -46.031404825231256 8.168177198324248
ltoes -33.400914351859484
